# Blender v2.74 (sub 0) OBJ File: ''
# www.blender.org
v -0.131351 0.040636 0.000000
v 0.000000 -0.012712 0.261510
v 0.000000 0.319912 0.000000
v 0.000000 -0.739929 0.000000
v -0.000000 -0.012711 -0.261510
v 0.131351 0.040636 -0.000000
v -0.066878 3.608017 -0.066878
v 0.066878 3.608017 -0.066878
v 0.066878 0.000000 -0.066878
v -0.066878 0.000000 -0.066878
v -0.066878 0.000000 0.066878
v 0.066878 0.000000 0.066878
v 0.066878 3.608017 0.066878
v -0.066878 3.608017 0.066878
v -0.066878 3.608017 0.000000
v -0.066878 0.000000 0.000000
vt 0.688736 0.680176
vt 0.777681 0.772895
vt 0.595165 0.775111
vt 0.380611 0.748772
vt 0.047224 0.748772
vt 0.063742 0.621214
vt 0.139832 0.517638
vt 0.783064 0.582968
vt 0.783064 0.765927
vt 0.689494 0.677902
vt 0.600549 0.585185
vt 0.595165 0.592152
vt 0.383527 0.748228
vt 0.142749 0.979361
vt 0.066658 0.875785
vt 0.050139 0.748228
vt 0.038495 0.268222
vt 0.038494 0.236684
vt 0.997041 0.236680
vt 0.997041 0.268218
vt 0.997041 0.173605
vt 0.997041 0.205143
vt 0.038494 0.205147
vt 0.038494 0.173609
vt 0.002959 0.236685
vt 0.002959 0.220916
vt 0.038494 0.157836
vt 0.997041 0.157836
vt 0.997041 0.283991
vt 0.038495 0.283991
vt 0.002959 0.205147
vn -0.795800 0.374300 0.476100
vn 0.895400 -0.150700 -0.419000
vn 0.895400 -0.150700 0.419000
vn 0.795800 0.374300 0.476100
vn 0.795800 0.374300 -0.476100
vn -0.795800 0.374300 -0.476100
vn -0.895400 -0.150700 0.419000
vn -0.895400 -0.150700 -0.419000
vn -0.000000 0.000000 -1.000000
vn 0.000000 0.000000 1.000000
vn 0.000000 1.000000 -0.000000
vn 1.000000 0.000000 -0.000000
vn -1.000000 0.000000 0.000000
s 1
f 1/1/1 2/2/1 3/3/1
f 4/4/2 5/5/2 6/6/2
f 2/7/3 4/4/3 6/6/3
f 3/8/4 2/9/4 6/10/4
f 5/11/5 3/8/5 6/10/5
f 3/3/6 5/12/6 1/1/6
f 4/13/7 2/14/7 1/15/7
f 5/16/8 4/13/8 1/15/8
f 7/17/9 8/18/9 9/19/9 10/20/9
f 11/21/10 12/22/10 13/23/10 14/24/10
f 8/18/11 7/25/11 15/26/11
f 13/23/12 12/22/12 9/19/12 8/18/12
f 15/27/13 16/28/13 11/21/13 14/24/13
f 16/29/13 15/30/13 7/17/13 10/20/13
f 8/18/11 15/26/11 13/23/11
f 14/31/11 13/23/11 15/26/11
